<svg xmlns="http://www.w3.org/2000/svg" xmlns:xlink="http://www.w3.org/1999/xlink" width="512" height="365" viewBox="0 0 512 365">
  <defs>
    <clipPath id="clip-afterschoolapps">
      <rect width="512" height="365"/>
    </clipPath>
  </defs>
  <g id="afterschoolapps" clip-path="url(#clip-afterschoolapps)">
    <g id="_146238-ffc107" data-name="146238-ffc107" transform="translate(512 209.914) rotate(90)">
      <path id="Path_7" data-name="Path 7" d="M24.413.73c5.2,1.388,8.526,4.681,10.189,10.143,1.279,4.161,1.407,13.177.213,16.645-1.194,3.424-5.116,6.545-10.7,8.539-.512.173-.64.433-.384.823.213.26,2.473,3.121,5.03,6.285l4.6,5.808-1.023.954c-.554.563-3.24,3.034-5.926,5.462-2.686,2.471-5.67,5.244-6.65,6.155l-1.748,1.69-7.673-7.108L2.671,49.016l4.007-5.158C8.9,41,11.069,38.18,11.5,37.573l.81-1.127-3.5-1.777C3.4,31.9,1.478,29.641.455,24.7-.568,19.8.2,12.39,2.117,8.316a16.584,16.584,0,0,1,6.1-6.329C12.22-.05,19.3-.613,24.413.73Z" transform="translate(0.952 448.767)" fill="#b8860b"/>
      <path id="Path_11" data-name="Path 11" d="M13.205,452.662c-5.652-1.1-12.177-5.882-12.948-9.5C.1,442.492.206,392.559.462,332.271.771,264.142.771,182.227.514,116L0,9.453,1.953,7.431C6.834,2.468,13.924-.534,19.474.079c5.292.613,9.351,3.37,12.486,8.639l1.49,2.389v29.9c0,20.586.154,30.021.565,30.266.308.245,13.719.122,29.8-.306,20.6-.552,29.441-.613,29.853-.123.925,1.1-1.439,4.166-6.166,7.9-4.779,3.8-7.81,6.739-7.81,7.6,0,.919,2.775,3.615,6.217,6.127,9.146,6.494,7.5,8.271-8.529,9.19-10.482.551-14.181,1.225-17.521,3.125-4.316,2.389-6.114,5.7-5.755,10.722.514,7.168-.617,54.65,3.34,59.674,3.956,5.085,5.19,5.514,18.754,6.372,9.249.613,11.972.98,13,1.777a3.332,3.332,0,0,1,1.285,1.593c0,1.042-1.953,3-5.806,5.943-8.735,6.617-8.735,8.7.1,14.275,8.683,5.514,8.632,7.6-.206,9.251-1.952.368-13.513.8-25.588.98l-22.043.306.206,113.774L37.3,443.227l-1.336,2.144c-1.593,2.451-5.652,5.269-9.4,6.433A32.739,32.739,0,0,1,13.205,452.662Z" fill="#b8860b"/>
    </g>
    <g id="_146238-ffc107-2" data-name="146238-ffc107" transform="translate(223.802 44.6) rotate(90)">
      <path id="Path_6" data-name="Path 6" d="M260.7,0V39.012L57.84,97.239,260.7,161.081v17.884L0,97.239V81.851Z" fill="#b8860b"/>
    </g>
    <text id="Afterschoolapps-2" data-name="Afterschoolapps" transform="translate(197 208)" fill="#003" font-size="41" font-family="Cabin-Bold, Cabin" font-weight="700" letter-spacing="0.02em"><tspan x="0" y="0">Afterschoolapps</tspan></text>
  </g>
</svg>
