<svg xmlns="http://www.w3.org/2000/svg" xmlns:xlink="http://www.w3.org/1999/xlink" width="480" height="170" viewBox="0 0 480 170">
  <defs>
    <clipPath id="clip-asap">
      <rect width="480" height="170"/>
    </clipPath>
  </defs>
  <g id="asap" clip-path="url(#clip-asap)">
    <g id="Group_190" data-name="Group 190" transform="translate(103 57.495)">
      <text id="afterschoolapps" transform="translate(0 44.505)" fill="#fff" font-size="45" font-family="Muli" font-weight="800" font-style="italic" letter-spacing="0.02em"><tspan x="0" y="0">afterschoolapps</tspan></text>
    </g>
    <g id="Group_1" data-name="Group 1" transform="translate(78.761 141) rotate(-138)">
      <g id="key" transform="translate(24.142 -3.13) rotate(14)">
        <g id="ac_unit-24px" transform="translate(0 0)">
          <path id="Path_15" data-name="Path 15" d="M46.6,48.068,0,49.883,1.814,1.814,48.417,0Z" transform="translate(0 0)" fill="none"/>
          <path id="Path_16" data-name="Path 16" d="M0,22.863l8.1-.315L1.561,29.282l2.631,2.737,9.4-9.686,3.884-.151-.151,4.006-9.4,9.686,2.651,2.717,6.536-6.734L16.8,40.208l3.884-.151.315-8.352,6.046,6.244L29.9,35.018l-8.7-8.981.151-4.006,3.884-.151,8.7,8.981,2.845-2.951-6.046-6.244,8.1-.315.151-4.006-8.1.315,6.536-6.734L34.8,8.189l-9.4,9.686-3.884.151.151-4.006,9.4-9.686L28.412,1.618,21.876,8.352,22.191,0,18.307.151,17.992,8.5,11.946,2.259,9.082,5.19l8.7,8.981-.151,4.006-3.884.151-8.7-8.981L2.2,12.3l6.046,6.244-8.1.315Z" transform="translate(4.715 4.837)" fill="#835a00"/>
        </g>
        <path id="Path_11" data-name="Path 11" d="M12.415.061a2.845,2.845,0,0,1,1.37,2.16c.011.157-.44,11.814-1,25.89-.635,15.906-1.357,35.03-1.912,50.49l-.881,24.871-.237.481c-.592,1.18-1.414,1.912-2.032,1.793-.589-.12-1.02-.746-1.326-1.962l-.146-.551.263-6.98c.181-4.806.247-7.008.2-7.063a26.53,26.53,0,0,0-3.348.2c-2.318.219-3.311.272-3.353.159-.094-.253.2-.979.762-1.872a7.275,7.275,0,0,0,.944-1.808,4,4,0,0,0-.644-1.4c-.97-1.476-.769-1.9,1.039-2.183,1.182-.175,1.6-.348,1.995-.806a3.638,3.638,0,0,0,.741-2.528C4.858,77.278,5.4,66.189,5,65.033s-.534-1.265-2.049-1.406c-1.033-.1-1.335-.176-1.444-.358a.891.891,0,0,1-.13-.366,3.905,3.905,0,0,1,.7-1.413c1.039-1.583,1.057-2.069.114-3.332-.926-1.249-.9-1.736.1-2.161a19.492,19.492,0,0,1,2.881-.341l2.477-.168.98-26.56L9.181,14.4,9.627,2.369,9.8,1.862A3.436,3.436,0,0,1,10.908.319,1.923,1.923,0,0,1,12.415.061Z" transform="translate(13.245 1.408)" fill="#835a00"/>
      </g>
    </g>
  </g>
</svg>
