<svg xmlns="http://www.w3.org/2000/svg" xmlns:xlink="http://www.w3.org/1999/xlink" width="800" height="800" viewBox="0 0 800 800">
  <defs>
    <clipPath id="clip-afterschool">
      <rect width="800" height="800"/>
    </clipPath>
  </defs>
  <g id="afterschool" clip-path="url(#clip-afterschool)">
    <g id="_146238-ffc107" data-name="146238-ffc107" transform="translate(800 392.903) rotate(90)">
      <path id="Path_7" data-name="Path 7" d="M38.145,1.141c8.126,2.168,13.322,7.315,15.92,15.848,2,6.5,2.2,20.589.333,26.007-1.865,5.35-7.993,10.227-16.719,13.342-.8.271-1,.677-.6,1.287.333.407,3.863,4.877,7.86,9.821l7.194,9.075-1.6,1.49c-.866.88-5.062,4.741-9.259,8.534-4.2,3.86-8.859,8.194-10.391,9.617L28.153,98.8,16.164,87.7,4.174,76.588l6.261-8.059c3.464-4.47,6.861-8.872,7.527-9.82l1.266-1.761-5.462-2.777C5.306,49.836,2.309,46.315.71,38.593c-1.6-7.653-.4-19.233,2.6-25.6A25.912,25.912,0,0,1,12.833,3.1C19.094-.078,30.152-.958,38.145,1.141Z" transform="translate(1.487 701.198)" fill="#b8860b"/>
      <path id="Path_11" data-name="Path 11" d="M20.633,707.284C11.8,705.561,1.606,698.094.4,692.446c-.241-1.053-.08-79.073.321-173.272C1.2,412.722,1.2,284.73.8,181.246L0,14.77l3.051-3.159C10.678,3.857,21.757-.834,30.427.123c8.269.957,14.611,5.265,19.509,13.5l2.328,3.733V64.071c0,32.166.241,46.908.883,47.291.482.383,21.436.191,46.564-.479,32.194-.862,46-.957,46.645-.192,1.445,1.723-2.248,6.509-9.634,12.349-7.466,5.935-12.2,10.53-12.2,11.871,0,1.436,4.335,5.648,9.714,9.573,14.29,10.147,11.721,12.924-13.327,14.36-16.378.862-22.158,1.915-27.377,4.882-6.744,3.733-9.554,8.9-8.992,16.753.8,11.2-.963,85.391,5.218,93.241,6.182,7.945,8.109,8.616,29.3,9.956,14.451.958,18.706,1.532,20.312,2.776a5.207,5.207,0,0,1,2.007,2.489c0,1.628-3.051,4.691-9.072,9.286-13.648,10.339-13.648,13.594.161,22.305,13.568,8.616,13.488,11.871-.321,14.455-3.051.574-21.115,1.244-39.981,1.532L57.724,337l.321,177.771.241,177.771-2.087,3.35c-2.489,3.829-8.831,8.233-14.692,10.052C35.967,707.763,26.413,708.337,20.633,707.284Z" fill="#b8860b"/>
    </g>
    <g id="_146238-ffc107-2" data-name="146238-ffc107" transform="translate(349.691 134.6) rotate(90)">
      <path id="Path_6" data-name="Path 6" d="M407.344,0V60.956L90.375,151.936l316.968,99.753v27.944L0,151.936V127.892Z" fill="#b8860b"/>
    </g>
    <text id="Afterschool_apps" data-name="Afterschool
                         apps" transform="translate(288 338)" fill="#003" font-size="100" font-family="Cabin-Bold, Cabin" font-weight="700" letter-spacing="0.005em"><tspan x="0" y="0">Afterschool</tspan><tspan font-size="64"><tspan x="0" y="39" xml:space="preserve">                         apps</tspan></tspan></text>
  </g>
</svg>
