<svg xmlns="http://www.w3.org/2000/svg" xmlns:xlink="http://www.w3.org/1999/xlink" width="480" height="170" viewBox="0 0 480 170">
  <defs>
    <clipPath id="clip-asap">
      <rect width="480" height="170"/>
    </clipPath>
  </defs>
  <g id="asap" clip-path="url(#clip-asap)">
    <g id="Group_1" data-name="Group 1" transform="translate(29 -157)">
      <g id="_146238-ffc107" data-name="146238-ffc107" transform="translate(443.161 273.013) rotate(90)">
        <path id="Path_7" data-name="Path 7" d="M8.657.673c1.844,1.28,3.023,4.317,3.613,9.354a89.97,89.97,0,0,1,.076,15.35,13.239,13.239,0,0,1-3.794,7.874.7.7,0,0,0-.136.759c.076.24.877,2.878,1.784,5.8l1.633,5.356-.363.879c-.2.52-1.149,2.8-2.1,5.037-.952,2.278-2.011,4.836-2.358,5.676l-.62,1.558L3.668,51.758.947,45.2l1.421-4.757c.786-2.638,1.557-5.236,1.708-5.8l.287-1.039-1.24-1.639C1.2,29.413.524,27.335.161,22.778A71.21,71.21,0,0,1,.751,7.669,17.656,17.656,0,0,1,2.913,1.832,4.239,4.239,0,0,1,8.657.673Z" transform="translate(0.338 413.848)" fill="#b8860b"/>
        <path id="Path_11" data-name="Path 11" d="M4.843,417.44C2.77,416.423.377,412.016.094,408.683c-.057-.621-.019-46.669.075-102.265.113-62.828.113-138.369.019-199.446L0,8.717.716,6.853C2.506,2.276,5.106-.492,7.141.073,9.082.638,10.571,3.18,11.72,8.039l.546,2.2V37.815c0,18.984.057,27.685.207,27.911.113.226,5.031.113,10.929-.282,7.556-.509,10.8-.565,10.948-.113.339,1.017-.528,3.842-2.261,7.289-1.752,3.5-2.864,6.215-2.864,7.006,0,.847,1.018,3.333,2.28,5.65,3.354,5.989,2.751,7.628-3.128,8.475-3.844.509-5.2,1.13-6.425,2.882-1.583,2.2-2.242,5.254-2.11,9.888.188,6.611-.226,50.4,1.225,55.031,1.451,4.689,1.9,5.085,6.878,5.876,3.392.565,4.39.9,4.767,1.638a4.3,4.3,0,0,1,.471,1.469c0,.961-.716,2.769-2.129,5.48-3.2,6.1-3.2,8.023.038,13.165,3.184,5.085,3.166,7.006-.075,8.532-.716.339-4.956.734-9.384.9l-8.083.283.075,104.921.057,104.921-.49,1.977a12.442,12.442,0,0,1-3.448,5.933A5.191,5.191,0,0,1,4.843,417.44Z" transform="translate(0 0)" fill="#b8860b"/>
      </g>
      <g id="_146238-ffc107-2" data-name="146238-ffc107" transform="translate(142 182) rotate(90)">
        <path id="Path_6" data-name="Path 6" d="M125.436,0V27.556L27.83,68.685l97.606,45.094v12.632L0,68.685V57.815Z" fill="#b8860b"/>
      </g>
      <text id="afterschoolapps" transform="translate(119 262)" fill="#003" font-size="45" font-family="Cabin-Bold, Cabin" font-weight="700" letter-spacing="0.02em"><tspan x="0" y="0">afterschoolapps</tspan></text>
      <text id="afterschoolapps-2" data-name="afterschoolapps" transform="translate(119 263)" fill="#003" font-size="45" font-family="Cabin-Bold, Cabin" font-weight="700" letter-spacing="0.02em"><tspan x="0" y="0">afterschoolapps</tspan></text>
    </g>
  </g>
</svg>
