<svg xmlns="http://www.w3.org/2000/svg" xmlns:xlink="http://www.w3.org/1999/xlink" width="480" height="170" viewBox="0 0 480 170">
  <defs>
    <clipPath id="clip-asap">
      <rect width="480" height="170"/>
    </clipPath>
  </defs>
  <g id="asap" clip-path="url(#clip-asap)">
    <g id="Group_190" data-name="Group 190" transform="translate(88 76.495)">
      <text id="afterschoolapps" transform="translate(0 44.505)" fill="#fff" font-size="45" font-family="Muli" font-weight="800" font-style="italic" letter-spacing="0.02em"><tspan x="0" y="0">afterschoolapps</tspan></text>
    </g>
    <g id="Group_1" data-name="Group 1" transform="translate(75.761 178) rotate(-138)">
      <g id="key" transform="translate(35.299 -1.005) rotate(14)">
        <g id="ac_unit-24px" transform="translate(0 0)">
          <path id="Path_15" data-name="Path 15" d="M62.57,64.611-1.767,67.116.738.755l64.337-2.5Z" transform="translate(0 0)" fill="none"/>
          <path id="Path_16" data-name="Path 16" d="M-.81,30.761l11.179-.435-9.024,9.3L4.977,43.4,17.955,30.031l5.361-.209-.209,5.53L10.129,48.724l3.659,3.751,9.024-9.3-.435,11.53,5.361-.209.435-11.53,8.347,8.621,3.954-4.047-12.006-12.4.209-5.53,5.361-.209L46.045,41.8l3.928-4.074-8.347-8.621L52.8,28.674l.209-5.53-11.179.435,9.024-9.3L47.227,10.5,34.248,23.874l-5.361.209.209-5.53L42.074,5.182,38.415,1.431l-9.024,9.3L29.826-.8l-5.361.209-.435,11.53L15.682,2.316,11.728,6.363l12.006,12.4-.209,5.53-5.361.209L6.158,12.1,2.23,16.175,10.577,24.8-.6,25.231Z" transform="translate(5.552 5.73)" fill="#835a00"/>
        </g>
        <path id="Path_11" data-name="Path 11" d="M13.9-.274a3.928,3.928,0,0,1,1.891,2.983c.016.216-.608,16.31-1.381,35.742-.877,21.96-1.873,48.361-2.639,69.7l-1.217,34.336-.327.663c-.817,1.629-1.952,2.639-2.805,2.475-.813-.166-1.408-1.03-1.83-2.709l-.2-.761.364-9.636c.25-6.635.341-9.675.281-9.751a36.625,36.625,0,0,0-4.623.279c-3.2.3-4.571.375-4.628.22-.13-.35.274-1.351,1.052-2.585a10.044,10.044,0,0,0,1.3-2.5,5.524,5.524,0,0,0-.889-1.937c-1.338-2.038-1.062-2.621,1.434-3.013,1.631-.241,2.213-.48,2.754-1.113a5.023,5.023,0,0,0,1.022-3.49c.008-2.307.76-17.617.208-19.213-.551-1.615-.737-1.746-2.829-1.94-1.426-.142-1.844-.244-1.993-.494a1.231,1.231,0,0,1-.18-.506,5.391,5.391,0,0,1,.972-1.95c1.434-2.185,1.46-2.857.158-4.6-1.279-1.725-1.245-2.4.144-2.983a26.91,26.91,0,0,1,3.978-.47l3.42-.232L8.689,39.581l.744-20.063L10.05,2.913l.233-.7A4.743,4.743,0,0,1,11.818.083,2.655,2.655,0,0,1,13.9-.274Z" transform="translate(19.759 0.551)" fill="#835a00"/>
      </g>
    </g>
  </g>
</svg>
