<svg xmlns="http://www.w3.org/2000/svg" xmlns:xlink="http://www.w3.org/1999/xlink" width="100" height="100" viewBox="0 0 100 100">
  <defs>
    <clipPath id="clip-student-teacher">
      <rect width="100" height="100"/>
    </clipPath>
  </defs>
  <g id="student-teacher" clip-path="url(#clip-student-teacher)">
    <g id="connect">
      <path id="Path_1" data-name="Path 1" d="M84.333,3h-75A8.358,8.358,0,0,0,1,11.333v12.5H9.333v-12.5h75V69.667H55.167V78H84.333a8.358,8.358,0,0,0,8.333-8.333V11.333A8.358,8.358,0,0,0,84.333,3ZM1,65.5V78H13.5A12.483,12.483,0,0,0,1,65.5ZM1,48.833v8.333A20.841,20.841,0,0,1,21.833,78h8.333A29.145,29.145,0,0,0,1,48.833ZM1,32.167V40.5A37.5,37.5,0,0,1,38.5,78h8.333A45.834,45.834,0,0,0,1,32.167Zm41.667,4.542v8.333L57.25,53l14.583-7.958V36.708L57.25,44.667ZM57.25,15.5,34.333,28,57.25,40.5,80.167,28Z" transform="translate(3.167 9.5)" fill="#ff3422"/>
      <path id="Path_2" data-name="Path 2" d="M0,0H100V100H0Z" fill="none"/>
    </g>
  </g>
</svg>
